<svg xmlns="http://www.w3.org/2000/svg" xmlns:svg="http://www.w3.org/2000/svg" id="svg50" width="1017.49" height="310.967" x="0" y="0" version="1.1" viewBox="0 0 1017.49 310.967" xml:space="preserve"><metadata id="metadata56"/><style id="style2" type="text/css">.st3{fill:#e24329}.st4{fill:#fca326}.st5{fill:#fc6d26}.st6{fill:#8c929d}.st14{display:none}.st15{opacity:.1;fill:#e828e3}.st15,.st16{display:inline}.st18{font-family:&apos;SourceSansPro-Semibold&apos;}.st19{font-size:24px}</style><g id="logo_art" transform="translate(-123.97696,-123.92475)"><g id="g28"><g id="g15"><path id="path14_3_" d="m 839.7,198.192 h -21.8 l 0.1,162.5 h 88.3 v -20.1 h -66.5 z" class="st6"/><g id="g24_3_" transform="translate(977.32744,143.2844)"><path id="path26_3_" d="m 13,188.892 c -5.5,5.7 -14.6,11.4 -27,11.4 -16.6,0 -23.3,-8.2 -23.3,-18.9 0,-16.1 11.2,-23.8 35,-23.8 4.5,0 11.7,0.5 15.4,1.2 v 30.1 z m -22.6,-98.5 c -17.6,0 -33.8,6.2 -46.4,16.7 l 7.7,13.4 c 8.9,-5.2 19.8,-10.4 35.5,-10.4 17.9,0 25.8,9.2 25.8,24.6 v 7.9 c -3.5,-0.7 -10.7,-1.2 -15.1,-1.2 -38.2,0 -57.6,13.4 -57.6,41.4 0,25.1 15.4,37.7 38.7,37.7 15.7,0 30.8,-7.2 36,-18.9 l 4,15.9 h 15.4 v -83.2 c -0.1,-26.3 -11.5,-43.9 -44,-43.9 z" class="st6"/></g><g id="g28_3_" transform="translate(1099.7669,143.12893)"><path id="path30_3_" d="m -17.7,201.192 c -8.2,0 -15.4,-1 -20.8,-3.5 v -67.3 -7.8 c 7.4,-6.2 16.6,-10.7 28.3,-10.7 21.1,0 29.2,14.9 29.2,39 0,34.2 -13.1,50.3 -36.7,50.3 m 9.2,-110.6 c -19.5,0 -30,13.3 -30,13.3 v -21 l -0.1,-27.8 h -9.8 -11.5 l 0.1,158.5 c 10.7,4.5 25.3,6.9 41.2,6.9 40.7,0 60.3,-26 60.3,-70.9 -0.1,-35.5 -18.2,-59 -50.2,-59" class="st6"/></g><g id="g32_5_" transform="translate(584.04212,143.6308)"><path id="path34_5_" d="m 18.3,72.192 c 19.3,0 31.8,6.4 39.9,12.9 l 9.4,-16.3 c -12.7,-11.2 -29.9,-17.2 -48.3,-17.2 -46.4,0 -78.9,28.3 -78.9,85.4 0,59.8 35.1,83.1 75.2,83.1 20.1,0 37.2,-4.7 48.4,-9.4 l -0.5,-63.9 v -7.5 -12.6 H 4 v 20.1 h 38 l 0.5,48.5 c -5,2.5 -13.6,4.5 -25.3,4.5 -32.2,0 -53.8,-20.3 -53.8,-63 -0.1,-43.5 22.2,-64.6 54.9,-64.6" class="st6"/></g><g id="g36_4_" transform="translate(793.56904,142.57746)"><path id="path38_4_" d="M -37.7,55.592 H -59 l 0.1,27.3 v 11.2 6.5 11.4 65 0.2 c 0,26.3 11.4,43.9 43.9,43.9 4.5,0 8.9,-0.4 13.1,-1.2 v -19.1 c -3.1,0.5 -6.4,0.7 -9.9,0.7 -17.9,0 -25.8,-9.2 -25.8,-24.6 v -65 h 35.7 v -17.8 h -35.7 z" class="st6"/></g><path id="path40_33_" d="m 680.4,360.692 h 21.3 v -124 h -21.3 z" class="st6"/><path id="path42_3_" d="m 680.4,219.592 h 21.3 v -21.3 h -21.3 z" class="st6"/></g><g id="g26"><path id="path50_5_" d="m 292.778,434.892 v 0 L 354.977,243.57 H 230.669 Z" class="st3"/><path id="path66_12_" d="m 143.549,243.57 v 0 l -18.941,58.126 c -1.714,5.278 0.137,11.104 4.661,14.394 l 163.509,118.801 z" class="st4"/><path id="path74_5_" d="m 143.549,243.57 h 87.12 L 193.175,128.346 c -1.919,-5.895 -10.282,-5.895 -12.27,0 z" class="st3"/><path id="path82_12_" d="m 442.097,243.57 v 0 l 18.873,58.126 c 1.714,5.278 -0.137,11.104 -4.661,14.394 L 292.778,434.892 Z" class="st4"/><path id="path86_5_" d="m 442.097,243.57 h -87.12 l 37.425,-115.224 c 1.919,-5.895 10.282,-5.895 12.27,0 z" class="st3"/><polygon id="polygon22" points="442.097 243.57 292.778 434.892 354.977 243.57" class="st5"/><polygon id="polygon24" points="230.669 243.57 292.778 434.892 143.549 243.57" class="st5"/></g></g></g><g id="spacing_guides" class="st14" transform="translate(-123.97696,-123.92475)"><path id="path40_32_" d="M -1,0 V 124 H 1267 V 0 Z" class="st15"/><path id="path40_31_" d="M -1,435 V 559 H 1267 V 435 Z" class="st15"/><path id="path40_30_" d="m 261.69,434.551 h 62 v -310 h -62 z" class="st15"/><path id="path40_29_" d="m 462.2,560 h 62 V -1 h -62 z" class="st15"/><text id="text35" class="st16 st18 st19" transform="translate(256.2529,195)">H: 2.5 x</text><text id="text37" class="st16 st18 st19" transform="translate(468.4727,282.832)">1/2 x</text><text id="text39" class="st16 st18 st19" transform="translate(621.2881,500.4978)">1x</text><text id="text41" class="st16 st18 st19" transform="translate(621.2881,65.4988)">1x</text><path id="path40_27_" d="M 0,560 H 124 V -1 H 0 Z" class="st15"/><text id="text44" class="st16 st18 st19" transform="translate(51.2881,282.832)">1x</text><path id="path40_3_" d="m 1142,560 h 124 V -1 h -124 z" class="st15"/><text id="text47" class="st16 st18 st19" transform="translate(1191.2881,282.832)">1x</text></g></svg>